<svg xmlns="http://www.w3.org/2000/svg" width="24.393" height="24.366" viewBox="0 0 24.393 24.366"><defs><style>.a{fill:#bcbcbc;}</style></defs><g transform="translate(0.1 0.7)"><path class="a" d="M67.517,8.7H65.7A1.319,1.319,0,0,0,64.4,10v1.816a1.319,1.319,0,0,0,1.3,1.3h1.816a1.307,1.307,0,0,0,1.328-1.3V10A1.325,1.325,0,0,0,67.517,8.7Zm.542,3.117a.539.539,0,0,1-.542.515H65.7a.533.533,0,0,1-.515-.515V10a.533.533,0,0,1,.515-.515h1.816a.521.521,0,0,1,.542.515Z" transform="translate(-47.018 -6.852)"/><path class="a" d="M19.469-.7H4.724A4.8,4.8,0,0,0-.1,4.1V18.842a4.835,4.835,0,0,0,4.824,4.824H19.469a4.835,4.835,0,0,0,4.824-4.824V4.1A4.812,4.812,0,0,0,19.469-.7Zm4.038,19.569a4.043,4.043,0,0,1-4.038,4.011H4.724A4.049,4.049,0,0,1,.686,18.842V8.353H6.513a6.83,6.83,0,1,0,10.733,0h6.261ZM7.6,8.271l.081-.081a6.02,6.02,0,1,1-1.87,4.364A6.163,6.163,0,0,1,7.6,8.271Zm15.91-.7H16.542A6.719,6.719,0,0,0,11.88,5.724,6.843,6.843,0,0,0,7.218,7.567H.686V4.1A4.008,4.008,0,0,1,4.724.086H19.469A4.043,4.043,0,0,1,23.507,4.1Z" transform="translate(0 0)"/><path class="a" d="M33.5,41.46a3.93,3.93,0,1,0-3.9-3.93A3.91,3.91,0,0,0,33.5,41.46Zm0-7.047a3.117,3.117,0,1,1-3.117,3.117A3.117,3.117,0,0,1,33.5,34.413Z" transform="translate(-21.649 -25.003)"/></g></svg>