<svg xmlns="http://www.w3.org/2000/svg" width="49.229" height="49.229" viewBox="0 0 49.229 49.229"><defs><style>.a{fill:#cba525;}</style></defs><path class="a" d="M194.111,59.069c-.38-.01-.765-.01-1.145,0a24.614,24.614,0,1,0,1.145,0Zm22.361,24.607A22.934,22.934,0,1,1,172.1,75.52a22.193,22.193,0,0,0,21.442,27.938l.122,0,.121,0a18.687,18.687,0,0,0,2.518-.172,22.2,22.2,0,0,0,18.685-27.761A22.82,22.82,0,0,1,216.472,83.676ZM201.029,73.56a11.324,11.324,0,1,0,7.224,20.045,16.967,16.967,0,0,1-7.9,6.845,16.693,16.693,0,0,1-4.289,1.174,20.964,20.964,0,0,1-2.406.152,16.887,16.887,0,1,1,14.594-25.613A11.321,11.321,0,0,0,201.029,73.56Zm9.643,11.162,0,.163,0,.244a9.692,9.692,0,1,1,0-.407Zm3.384-3.463A20.468,20.468,0,0,1,210.772,92.4a18.573,18.573,0,1,0-32.86,2.155,20.524,20.524,0,1,1,36.143-13.3Z" transform="translate(-168.924 -59.062)"/></svg>