<svg xmlns="http://www.w3.org/2000/svg" width="444" height="48.87" viewBox="0 0 444 48.87"><defs><style>.a{fill:#fff;}.b{fill:#cba525;}</style></defs><g transform="translate(-393 -60)"><g transform="translate(393 76.187)"><path class="a" d="M64.5,78.983H60.4a.433.433,0,0,1-.447-.447v-.684A.433.433,0,0,1,60.4,77.4h9.992a.433.433,0,0,1,.448.447v.684a.434.434,0,0,1-.448.447h-4.1V93.454a.434.434,0,0,1-.447.447h-.895a.433.433,0,0,1-.448-.447Z" transform="translate(-59.951 -77.404)"/><path class="a" d="M77.28,77.851a.433.433,0,0,1,.447-.447h.92a.433.433,0,0,1,.447.447v6.882h9.569V77.851a.433.433,0,0,1,.447-.447h.92a.433.433,0,0,1,.447.447v15.6a.434.434,0,0,1-.447.447h-.92a.433.433,0,0,1-.447-.447V86.312H79.094v7.142a.434.434,0,0,1-.447.447h-.92a.434.434,0,0,1-.447-.447Z" transform="translate(-61.988 -77.404)"/><path class="a" d="M96.529,77.851a.433.433,0,0,1,.448-.447h9.285a.433.433,0,0,1,.447.447v.684a.434.434,0,0,1-.447.447H98.344v5.75h6.763a.433.433,0,0,1,.448.448v.683a.433.433,0,0,1-.448.447H98.344v6.01h7.918a.434.434,0,0,1,.447.448v.684a.434.434,0,0,1-.447.447H96.977a.434.434,0,0,1-.448-.447Z" transform="translate(-64.25 -77.404)"/></g><g transform="translate(711.484 75.951)"><path class="a" d="M425.4,78.983h-4.1a.433.433,0,0,1-.448-.447v-.683a.433.433,0,0,1,.448-.448h9.992a.433.433,0,0,1,.447.448v.683a.433.433,0,0,1-.447.447h-4.1V93.454a.434.434,0,0,1-.447.447h-.9a.433.433,0,0,1-.447-.447Z" transform="translate(-420.848 -77.168)"/><path class="a" d="M438.177,77.852a.433.433,0,0,1,.447-.448h.92a.433.433,0,0,1,.447.448v6.882h9.569V77.852a.433.433,0,0,1,.447-.448h.919a.433.433,0,0,1,.447.448v15.6a.434.434,0,0,1-.447.447h-.919a.433.433,0,0,1-.447-.447V86.313h-9.569v7.141a.434.434,0,0,1-.447.447h-.92a.434.434,0,0,1-.447-.447Z" transform="translate(-422.885 -77.168)"/><path class="a" d="M457.427,77.852a.433.433,0,0,1,.447-.448h9.286a.433.433,0,0,1,.447.448v.683a.433.433,0,0,1-.447.447h-7.919v5.751h6.763a.433.433,0,0,1,.447.447v.684a.433.433,0,0,1-.447.447h-6.763v6.01h7.919a.434.434,0,0,1,.447.447v.684a.434.434,0,0,1-.447.447h-9.286a.434.434,0,0,1-.447-.447Z" transform="translate(-425.147 -77.168)"/><path class="a" d="M473.687,77.852a.433.433,0,0,1,.447-.448h6.1a5.064,5.064,0,0,1,5.138,5.02,5.235,5.235,0,0,1-3.488,4.807l3.228,5.987a.446.446,0,0,1-.4.683h-1.2a.434.434,0,0,1-.378-.212L480,87.444h-4.5v6.01a.434.434,0,0,1-.448.447h-.92a.434.434,0,0,1-.447-.447Zm6.434,8.036a3.382,3.382,0,1,0,0-6.764H475.55v6.764Z" transform="translate(-427.058 -77.168)"/><path class="a" d="M490.687,93.87a.41.41,0,0,1-.4-.612L497.45,77.4a.414.414,0,0,1,.4-.259h.235a.46.46,0,0,1,.4.259l7.118,15.861a.41.41,0,0,1-.4.612h-.942a.461.461,0,0,1-.4-.259l-1.745-3.888h-8.366L492.03,93.61a.461.461,0,0,1-.4.259Zm10.794-5.609L498.04,80.53h-.188l-3.441,7.731Z" transform="translate(-429.002 -77.137)"/><path class="a" d="M511.548,77.852A.433.433,0,0,1,512,77.4H517.2a5.256,5.256,0,1,1,.024,10.511h-3.888v5.538a.434.434,0,0,1-.448.447H512a.434.434,0,0,1-.447-.447Zm5.538,8.318a3.6,3.6,0,0,0,3.583-3.606,3.464,3.464,0,0,0-3.583-3.369h-3.746v6.975Z" transform="translate(-431.507 -77.168)"/><path class="a" d="M528.448,77.852a.433.433,0,0,1,.447-.448h.942a.434.434,0,0,1,.449.448v15.6a.434.434,0,0,1-.449.447H528.9a.434.434,0,0,1-.447-.447Z" transform="translate(-433.493 -77.168)"/><path class="a" d="M535.212,91.4l.355-.447c.259-.307.471-.5.824-.213a6.507,6.507,0,0,0,3.983,1.791c1.909,0,3.158-1.2,3.158-2.591,0-1.626-1.39-2.593-4.125-3.724-2.593-1.131-4.148-2.169-4.148-4.878,0-1.58,1.272-4.2,5.02-4.2a7.444,7.444,0,0,1,2.876.612,8.91,8.91,0,0,1,1.154.589c.165.071.424.354.141.8l-.282.447a.522.522,0,0,1-.825.213,6.755,6.755,0,0,0-3.088-1.085c-2.521,0-3.252,1.6-3.252,2.593,0,1.58,1.2,2.5,3.181,3.323,3.205,1.319,5.232,2.5,5.232,5.232,0,2.452-2.356,4.242-5.09,4.242a7.556,7.556,0,0,1-4.973-1.909A.517.517,0,0,1,535.212,91.4Z" transform="translate(-434.273 -77.137)"/><path class="a" d="M555.29,78.983h-4.1a.433.433,0,0,1-.447-.447v-.683a.433.433,0,0,1,.447-.448h9.992a.433.433,0,0,1,.447.448v.683a.433.433,0,0,1-.447.447h-4.1V93.454a.433.433,0,0,1-.447.447h-.9a.433.433,0,0,1-.447-.447Z" transform="translate(-436.113 -77.168)"/></g><path class="b" d="M193.927,59.069c-.377-.01-.76-.01-1.137,0a24.435,24.435,0,1,0,1.137,0Zm22.2,24.428a22.767,22.767,0,1,1-44.052-8.1,22.031,22.031,0,0,0,21.285,27.735l.121,0,.12,0a18.55,18.55,0,0,0,2.5-.17,22.035,22.035,0,0,0,18.549-27.558A22.653,22.653,0,0,1,216.125,83.5Zm-15.33-10.043a11.242,11.242,0,1,0,7.171,19.9,16.843,16.843,0,0,1-7.841,6.8,16.57,16.57,0,0,1-4.258,1.166,20.809,20.809,0,0,1-2.389.151,16.764,16.764,0,1,1,14.488-25.426A11.239,11.239,0,0,0,200.795,73.454Zm9.572,11.08,0,.161,0,.243a9.622,9.622,0,1,1,0-.4Zm3.36-3.437a20.319,20.319,0,0,1-3.26,11.064,18.438,18.438,0,1,0-32.62,2.139,20.374,20.374,0,1,1,35.88-13.2Z" transform="translate(320.242 0.938)"/><path class="b" d="M140.825,79.12c-5.466-2.226-7.963-4.387-7.963-7.558,0-2.16,2.091-4.724,5.937-4.724,3.713,0,8.841,3.307,9.38,3.711a1.775,1.775,0,0,0,2.362-.809l2.564-3.847a1.605,1.605,0,0,0-.4-2.226,23.754,23.754,0,0,0-13.5-4.521c-10.729,0-15.183,6.95-15.183,12.956,0,7.963,6.344,12.011,12.687,14.575,5.668,2.362,8.57,4.657,8.57,8.1,0,2.9-2.631,5.2-6.14,5.2-4.387,0-9.852-4.049-10.189-4.184a1.517,1.517,0,0,0-2.294.473l-2.429,4.182c-.608,1.081-.27,1.417.336,2.025,1.282,1.282,6.41,5.263,14.846,5.263,9.515,0,15.519-6.41,15.519-13.361C154.927,85.665,147.37,81.819,140.825,79.12Z" transform="translate(325.533 0.928)"/><path class="b" d="M276.75,59.911h-6.41a1.241,1.241,0,0,0-1.282,1.282V88.858c0,5.669-3.981,10.19-9.851,10.19s-9.785-4.589-9.785-10.256v-27.6a1.24,1.24,0,0,0-1.281-1.282h-6.41a1.241,1.241,0,0,0-1.282,1.282v28.07a18.794,18.794,0,0,0,37.585,0V61.193A1.24,1.24,0,0,0,276.75,59.911Z" transform="translate(311.837 0.838)"/><path class="b" d="M337.535,59.821h-6.208a1.241,1.241,0,0,0-1.282,1.282V88.971h-.067L301.907,59.146h-1.687a1.188,1.188,0,0,0-1.282,1.214v45.412a1.241,1.241,0,0,0,1.282,1.283h6.141a1.241,1.241,0,0,0,1.281-1.283V76.758h.068l28.2,30.972h1.62a1.187,1.187,0,0,0,1.282-1.214V61.1A1.241,1.241,0,0,0,337.535,59.821Z" transform="translate(304.963 0.928)"/><path class="b" d="M377.114,59.911H361.121a1.187,1.187,0,0,0-1.214,1.282v44.669a1.188,1.188,0,0,0,1.214,1.283h15.992a23.617,23.617,0,1,0,0-47.235Zm-.809,39h-7.693V68.075H376.3c8.772,0,15.182,6.613,15.182,15.386C391.487,92.3,385.076,98.913,376.3,98.913Z" transform="translate(297.798 0.838)"/></g></svg>